<svg width="61" height="72" viewBox="0 0 61 72" fill="none" xmlns="http://www.w3.org/2000/svg">
<path d="M38 0C50.7025 0 61 10.2975 61 23C61 35.7025 50.7025 46 38 46H29.8125V41.5596C29.8125 38.591 30.0927 35.903 30.6533 33.4961C31.214 31.0491 31.995 28.9029 32.9961 27.0576C33.9973 25.2123 35.1589 23.6879 36.4805 22.4844C37.8421 21.2408 39.3044 20.338 40.8662 19.7764C40.5058 20.8594 40.3252 21.8626 40.3252 22.7852C40.3252 24.5501 40.8457 26.0144 41.8867 27.1777C42.968 28.3411 44.5103 28.9229 46.5127 28.9229C48.4348 28.9228 49.9969 28.3216 51.1982 27.1182C52.3996 25.8747 52.9999 24.1495 53 21.9434C53 19.4563 52.219 17.5105 50.6572 16.1064C49.0954 14.7024 47.1128 14 44.71 14C43.2284 14 41.7668 14.2608 40.3252 14.7822C38.8835 15.3037 37.5217 16.046 36.2402 17.0088C34.9588 17.9715 33.7775 19.1147 32.6963 20.4385C31.6551 21.7222 30.7736 23.1464 30.0527 24.7109H29.8125V15.3838H19V62.5C19 67.7467 14.7467 72 9.5 72C4.25329 72 0 67.7467 0 62.5V30.5C0 13.6553 13.6553 0 30.5 0H38Z" fill="black"/>
</svg>
